# xmcd CD database file
#
# Track frame offsets:
#	150
#	22329
#	44266
#	66269
#	88979
#	109780
#	132228
#	155253
#	178190
#	197647
#	218827
#	240510
#	261755
#	284065
#	306099
#
# Disc length: 4436 seconds
#
# Revision: 0
# Processed by: cddbd v1.5.1PL0 Copyright (c) Steve Scherf et al.
# Submitted via: CDex 1.51
#
DISCID=e211520f
DTITLE=DLG  - Dark Latin Groove
DYEAR=2000
DGENRE=Salsa
TTITLE0=Volvere
TTITLE1=Acuyuye
TTITLE2=A veces me pregunto
TTITLE3=La quiero a morir
TTITLE4=No morira
TTITLE5=Juliana
TTITLE6=La soledad
TTITLE7=Todo mi corazon
TTITLE8=Magdalena mi amor
TTITLE9=Me va a extranar
TTITLE10=Muevete
TTITLE11=Todo
TTITLE12=Ya
TTITLE13=Eres mi vida
TTITLE14=No morira (remix)
EXTD=YEAR: 2000
EXTT0=
EXTT1=
EXTT2=
EXTT3=
EXTT4=
EXTT5=
EXTT6=
EXTT7=
EXTT8=
EXTT9=
EXTT10=
EXTT11=
EXTT12=
EXTT13=
EXTT14=
PLAYORDER=
